{"asset":{"version":"2.0","generator":"babylon.js glTF exporter for 3ds max 2018 v1.2.12","copyright":"2017 (c) BabylonJS"},"extensionsUsed":["KHR_lights"],"scene":0,"scenes":[{"nodes":[0],"extensions":{"KHR_lights":{"light":0}}}],"nodes":[{"mesh":0,"translation":[0.0,0.0,0.0],"rotation":[0.0,0.0,0.0,1.0],"scale":[1.0,1.0,1.0],"name":"n31_nvren2"}],"meshes":[{"primitives":[{"attributes":{"POSITION":1,"NORMAL":2,"TEXCOORD_0":3},"indices":0,"mode":4,"material":0}],"name":"n31_nvren2"}],"accessors":[{"bufferView":0,"componentType":5123,"count":7512,"type":"SCALAR","name":"accessorIndices"},{"bufferView":1,"componentType":5126,"count":7512,"max":[0.611185133,2.00508237,0.2021425],"min":[-0.6111852,0.00116669061,-0.264910966],"type":"VEC3","name":"accessorPositions"},{"bufferView":1,"byteOffset":90144,"componentType":5126,"count":7512,"type":"VEC3","name":"accessorNormals"},{"bufferView":2,"componentType":5126,"count":7512,"type":"VEC2","name":"accessorUVs"}],"bufferViews":[{"buffer":0,"byteLength":15024,"name":"bufferViewScalar"},{"buffer":0,"byteOffset":15024,"byteLength":180288,"byteStride":12,"name":"bufferViewFloatVec3"},{"buffer":0,"byteOffset":195312,"byteLength":60096,"byteStride":8,"name":"bufferViewFloatVec2"}],"buffers":[{"uri":"woman.bin","byteLength":255408}],"materials":[{"pbrMetallicRoughness":{"baseColorFactor":[1.0,1.0,1.0,1.0],"baseColorTexture":{"index":0,"texCoord":0},"metallicFactor":0.0,"roughnessFactor":0.9},"emissiveFactor":[0.0,0.0,0.0],"alphaMode":"BLEND","name":"Material #2"}],"textures":[{"sampler":0,"source":0,"name":"Material #2_baseColor.png"}],"images":[{"uri":"Material #2_baseColor.png"}],"samplers":[{"magFilter":9729,"minFilter":9987,"wrapS":10497,"wrapT":10497}],"extensions":{"KHR_lights":{"lights":[{"color":[1.0,1.0,1.0],"intensity":1.0,"type":"ambient"}]}}}