{
  "accessors": [
    {
      "bufferView": 1,
      "componentType": 5126,
      "count": 324,
      "max": [
        4.4212703704833984,
        15.053207397460938,
        4.4429082870483398
      ],
      "min": [
        -4.3842306137084961,
        -8.8907833099365234,
        -4.3515758514404297
      ],
      "type": "VEC3"
    },
    {
      "bufferView": 1,
      "byteOffset": 3888,
      "componentType": 5126,
      "count": 324,
      "max": [
        0.98483395576477051,
        0.99933701753616333,
        0.97499758005142212
      ],
      "min": [
        -0.99933648109436035,
        -0.36736997961997986,
        -0.99913746118545532
      ],
      "type": "VEC3"
    },
    {
      "bufferView": 0,
      "componentType": 5125,
      "count": 324,
      "max": [
        323
      ],
      "min": [
        0
      ],
      "type": "SCALAR"
    },
    {
      "bufferView": 1,
      "byteOffset": 7776,
      "componentType": 5126,
      "count": 230,
      "max": [
        1.0588144063949585,
        -2.4840567111968994,
        1.2833321094512939
      ],
      "min": [
        -0.62434160709381104,
        -15.072629928588867,
        -0.46717867255210876
      ],
      "type": "VEC3"
    },
    {
      "bufferView": 1,
      "byteOffset": 10536,
      "componentType": 5126,
      "count": 230,
      "max": [
        0.97313320636749268,
        0.9998360276222229,
        0.99617928266525269
      ],
      "min": [
        -0.97309786081314087,
        -0.9998360276222229,
        -0.99896699190139771
      ],
      "type": "VEC3"
    },
    {
      "bufferView": 0,
      "byteOffset": 1296,
      "componentType": 5125,
      "count": 468,
      "max": [
        229
      ],
      "min": [
        0
      ],
      "type": "SCALAR"
    }
  ],
  "asset": {
    "extras": {
      "author": "FLAREMEDIA (https://sketchfab.com/flaremedia)",
      "license": "CC-BY-4.0 (http://creativecommons.org/licenses/by/4.0/)",
      "source": "https://sketchfab.com/models/6c18d8f196724f6f8438f53552af7a5f",
      "title": "Lowpoly  Tree 3"
    },
    "generator": "Sketchfab-3.18.7",
    "version": "2.0"
  },
  "bufferViews": [
    {
      "buffer": 0,
      "byteLength": 3168,
      "byteOffset": 0,
      "name": "floatBufferViews",
      "target": 34963
    },
    {
      "buffer": 0,
      "byteLength": 13296,
      "byteOffset": 3168,
      "byteStride": 12,
      "name": "floatBufferViews",
      "target": 34962
    }
  ],
  "buffers": [
    {
      "byteLength": 16464,
      "uri": "scene.bin"
    }
  ],
  "materials": [
    {
      "doubleSided": true,
      "emissiveFactor": [
        0,
        0,
        0
      ],
      "name": "Tree_1",
      "pbrMetallicRoughness": {
        "baseColorFactor": [
          0.33333299999999999,
          0.80000000000000004,
          0,
          1
        ],
        "metallicFactor": 0,
        "roughnessFactor": 0.59999999999999998
      }
    },
    {
      "doubleSided": true,
      "emissiveFactor": [
        0,
        0,
        0
      ],
      "name": "Mat.3",
      "pbrMetallicRoughness": {
        "baseColorFactor": [
          0.83999999999999997,
          0.58464000000000005,
          0.2016,
          1
        ],
        "metallicFactor": 0,
        "roughnessFactor": 0.59999999999999998
      }
    }
  ],
  "meshes": [
    {
      "name": "Tree_1_1_Tree 1_0",
      "primitives": [
        {
          "attributes": {
            "NORMAL": 1,
            "POSITION": 0
          },
          "indices": 2,
          "material": 0,
          "mode": 4
        }
      ]
    },
    {
      "name": "Tree_1_1_Mat.3_0",
      "primitives": [
        {
          "attributes": {
            "NORMAL": 4,
            "POSITION": 3
          },
          "indices": 5,
          "material": 1,
          "mode": 4
        }
      ]
    }
  ],
  "nodes": [
    {
      "children": [
        1
      ],
      "name": "RootNode (gltf orientation matrix)",
      "rotation": [
        -0.70710678118654746,
        -0,
        -0,
        0.70710678118654757
      ]
    },
    {
      "children": [
        2
      ],
      "name": "RootNode (model correction matrix)"
    },
    {
      "children": [
        3
      ],
      "matrix": [
        1,
        0,
        0,
        0,
        0,
        0,
        1,
        0,
        0,
        -1,
        0,
        0,
        0,
        0,
        0,
        1
      ],
      "name": "486ba6003c354f5f9ccea0b20b4887e6.fbx"
    },
    {
      "children": [
        4
      ],
      "name": "RootNode"
    },
    {
      "children": [
        5,
        6
      ],
      "name": "Tree_1_1"
    },
    {
      "mesh": 0,
      "name": "Tree_1_1_Tree 1_0"
    },
    {
      "mesh": 1,
      "name": "Tree_1_1_Mat.3_0"
    }
  ],
  "scene": 0,
  "scenes": [
    {
      "name": "OSG_Scene",
      "nodes": [
        0
      ]
    }
  ]
}

